# xmcd CD database file
#
# Track frame offsets:
#	150
#	27650
#	54195
#	69928
#	84762
#	100312
#	130398
#	163970
#
# Disc length: 2808 seconds
#
# Revision: 0
# Processed by: cddbd v1.5.2PL0 Copyright (c) Steve Scherf et al.
# Submitted via: CDex 1.99.1
#
DISCID=630af608
DTITLE=Nina Simone - At Carnegie Hall - CD 1
DYEAR=2009
DGENRE=Jazz
TTITLE0=Black Swan (from The Medium)
TTITLE1=Theme From Samson And Delilah
TTITLE2=If You Know
TTITLE3=Theme From Sayonara
TTITLE4=The Twelfth Of Never
TTITLE5=Will I Find My Love Today
TTITLE6=Medley: The Other Woman/Cotton Eyed Joe
TTITLE7=Work Song
EXTD=YEAR: 2009
EXTT0=
EXTT1=
EXTT2=
EXTT3=
EXTT4=
EXTT5=
EXTT6=
EXTT7=
PLAYORDER=
